<?xml version="1.0" encoding="utf-8"?>
<!-- Generator: Adobe Illustrator 23.0.1, SVG Export Plug-In . SVG Version: 6.00 Build 0)  -->
<svg version="1.1" id="Layer_1" xmlns="http://www.w3.org/2000/svg" xmlns:xlink="http://www.w3.org/1999/xlink" x="0px" y="0px"
	 viewBox="0 0 123 201" style="enable-background:new 0 0 123 201;" xml:space="preserve">
<style type="text/css">
	.st0{fill:none;stroke:#000000;stroke-width:45;stroke-linecap:round;stroke-linejoin:round;stroke-miterlimit:10;}
	.st1{fill:#FFFFFF;}
</style>
<g>
	<polyline class="st0" points="-304.5,-270.5 -226.5,-348.5 -304.5,-426.5 	"/>
</g>
<g>
	<g>
		<path class="st1" d="M22.5,201c-5.8,0-11.5-2.2-15.9-6.6c-8.8-8.8-8.8-23,0-31.8l62.1-62.1L6.6,38.4c-8.8-8.8-8.8-23,0-31.8
			c8.8-8.8,23-8.8,31.8,0l78,78c8.8,8.8,8.8,23,0,31.8l-78,78C34,198.8,28.3,201,22.5,201z"/>
	</g>
</g>
<g>
	<path class="st1" d="M388.3,177.5l62.1-62.1c8.8-8.8,8.8-23,0-31.8c-8.8-8.8-23-8.8-31.8,0l-62.1,62.1l-62.1-62.1
		c-8.8-8.8-23-8.8-31.8,0c-8.8,8.8-8.8,23,0,31.8l62.1,62.1l-62.1,62.1c-8.8,8.8-8.8,23,0,31.8c4.4,4.4,10.2,6.6,15.9,6.6
		s11.5-2.2,15.9-6.6l62.1-62.1l62.1,62.1c4.4,4.4,10.2,6.6,15.9,6.6s11.5-2.2,15.9-6.6c8.8-8.8,8.8-23,0-31.8L388.3,177.5z"/>
</g>
</svg>
