<?xml version="1.0" encoding="utf-8"?>
<!-- Generator: Adobe Illustrator 23.0.1, SVG Export Plug-In . SVG Version: 6.00 Build 0)  -->
<svg version="1.1" id="Layer_1" xmlns="http://www.w3.org/2000/svg" xmlns:xlink="http://www.w3.org/1999/xlink" x="0px" y="0px"
	 viewBox="0 0 201 201" style="enable-background:new 0 0 201 201;" xml:space="preserve">
<style type="text/css">
	.st0{fill:none;stroke:#000000;stroke-width:45;stroke-linecap:round;stroke-linejoin:round;stroke-miterlimit:10;}
	.st1{fill:#FFFFFF;}
</style>
<g>
	<polyline class="st0" points="-560.5,-347.5 -482.5,-425.5 -560.5,-503.5 	"/>
</g>
<g>
	<g>
		<path class="st1" d="M-233.5,124c-5.8,0-11.5-2.2-15.9-6.6c-8.8-8.8-8.8-23,0-31.8l62.1-62.1l-62.1-62.1c-8.8-8.8-8.8-23,0-31.8
			c8.8-8.8,23-8.8,31.8,0l78,78c8.8,8.8,8.8,23,0,31.8l-78,78C-222,121.8-227.7,124-233.5,124z"/>
	</g>
</g>
<g>
	<path class="st1" d="M132.3,100.5l62.1-62.1c8.8-8.8,8.8-23,0-31.8c-8.8-8.8-23-8.8-31.8,0l-62.1,62.1L38.4,6.6
		c-8.8-8.8-23-8.8-31.8,0c-8.8,8.8-8.8,23,0,31.8l62.1,62.1L6.6,162.6c-8.8,8.8-8.8,23,0,31.8c4.4,4.4,10.2,6.6,15.9,6.6
		s11.5-2.2,15.9-6.6l62.1-62.1l62.1,62.1c4.4,4.4,10.2,6.6,15.9,6.6s11.5-2.2,15.9-6.6c8.8-8.8,8.8-23,0-31.8L132.3,100.5z"/>
</g>
</svg>
