<?xml version="1.0" standalone="no"?>
<!DOCTYPE svg PUBLIC "-//W3C//DTD SVG 20010904//EN"
 "http://www.w3.org/TR/2001/REC-SVG-20010904/DTD/svg10.dtd">
<svg version="1.0" xmlns="http://www.w3.org/2000/svg"
 width="2050.000000pt" height="2050.000000pt" viewBox="0 0 2050.000000 2050.000000"
 preserveAspectRatio="xMidYMid meet">
<metadata>
Created by potrace 1.11, written by Peter Selinger 2001-2013
</metadata>
<g transform="translate(0.000000,2050.000000) scale(0.100000,-0.100000)"
fill="#000000" stroke="none">
<path d="M6967 18354 c-1 -1 -29 -5 -62 -8 -242 -26 -491 -111 -683 -233 -180
-114 -349 -273 -465 -434 -125 -175 -235 -426 -273 -624 -4 -22 -9 -47 -10
-55 -2 -8 -6 -37 -9 -65 -3 -27 -7 -61 -9 -75 -8 -43 -17 -103 -21 -145 -3
-22 -8 -58 -11 -80 -11 -75 -13 -90 -19 -144 -4 -30 -8 -61 -10 -70 -1 -9 -6
-45 -11 -81 -4 -36 -8 -67 -9 -70 -1 -3 -5 -34 -9 -70 -5 -36 -10 -72 -11 -81
-2 -9 -6 -40 -10 -70 -3 -30 -8 -61 -10 -69 -2 -8 -7 -46 -10 -85 -4 -38 -8
-72 -10 -75 -1 -3 -6 -30 -9 -60 -4 -30 -8 -66 -11 -80 -7 -44 -37 -264 -37
-280 0 -8 -4 -35 -8 -60 -5 -25 -11 -70 -15 -100 -3 -30 -8 -66 -10 -80 -1
-14 -6 -49 -10 -79 -4 -30 -8 -61 -10 -70 -1 -9 -6 -41 -10 -71 -7 -58 -10
-81 -19 -145 -3 -22 -8 -60 -11 -85 -4 -25 -8 -56 -10 -70 -2 -14 -7 -49 -10
-79 -4 -30 -8 -62 -10 -71 -2 -9 -6 -41 -9 -71 -3 -30 -8 -63 -10 -74 -2 -11
-7 -45 -10 -76 -4 -31 -8 -65 -10 -75 -7 -37 -24 -171 -31 -234 -1 -14 -5 -38
-8 -55 -3 -16 -9 -52 -12 -80 -3 -27 -8 -63 -10 -80 -2 -16 -9 -64 -14 -105
-6 -41 -13 -95 -16 -120 -3 -25 -8 -56 -10 -70 -2 -14 -7 -47 -10 -75 -3 -27
-8 -57 -10 -65 -2 -8 -7 -46 -10 -85 -4 -38 -8 -72 -10 -75 -2 -3 -6 -34 -10
-70 -4 -36 -8 -67 -10 -70 -1 -3 -6 -36 -10 -73 -3 -37 -8 -76 -10 -86 -2 -10
-6 -42 -10 -72 -3 -30 -8 -61 -10 -69 -2 -8 -6 -37 -10 -65 -3 -27 -8 -66 -10
-85 -3 -19 -7 -55 -10 -80 -3 -25 -7 -58 -10 -75 -3 -16 -7 -46 -9 -65 -10
-75 -37 -276 -41 -300 -2 -14 -6 -47 -10 -75 -3 -27 -10 -77 -15 -110 -5 -33
-12 -85 -15 -115 -3 -30 -8 -62 -10 -70 -2 -8 -6 -40 -10 -71 -3 -31 -7 -66
-9 -76 -3 -11 -7 -44 -11 -74 -3 -30 -8 -65 -10 -79 -2 -14 -6 -47 -10 -75 -3
-27 -8 -61 -10 -75 -2 -14 -13 -97 -25 -185 -12 -88 -23 -171 -25 -185 -2 -14
-6 -47 -10 -75 -3 -27 -10 -77 -15 -110 -5 -33 -12 -82 -15 -110 -4 -27 -8
-61 -10 -75 -2 -14 -9 -62 -15 -107 -6 -46 -13 -97 -15 -115 -3 -18 -8 -53
-11 -78 -3 -25 -7 -56 -9 -70 -2 -14 -7 -47 -10 -75 -6 -49 -23 -175 -30 -225
-10 -63 -16 -108 -20 -150 -3 -25 -7 -54 -9 -65 -2 -12 -7 -48 -11 -80 -3 -33
-10 -85 -15 -115 -5 -30 -12 -80 -15 -110 -3 -30 -10 -80 -15 -110 -5 -30 -12
-80 -15 -110 -4 -30 -8 -66 -10 -80 -2 -14 -6 -45 -10 -70 -3 -25 -8 -56 -10
-70 -2 -14 -7 -47 -10 -75 -3 -27 -8 -61 -10 -75 -2 -14 -9 -63 -15 -110 -17
-131 -21 -163 -25 -190 -2 -14 -7 -50 -10 -80 -4 -30 -11 -77 -16 -103 -5 -26
-8 -51 -7 -55 1 -4 -2 -27 -5 -52 -4 -25 -9 -61 -12 -80 -2 -19 -7 -51 -9 -70
-3 -19 -8 -55 -11 -80 -7 -60 -15 -120 -20 -150 -3 -21 -13 -97 -41 -305 -3
-22 -7 -51 -9 -65 -2 -14 -6 -45 -10 -70 -5 -44 -13 -101 -20 -150 -2 -14 -9
-63 -15 -110 -17 -133 -21 -163 -25 -190 -9 -60 -16 -108 -20 -155 -3 -27 -9
-75 -14 -105 -6 -30 -12 -77 -16 -105 -3 -27 -7 -61 -10 -75 -2 -14 -7 -47
-10 -75 -3 -27 -7 -61 -10 -75 -2 -14 -7 -47 -10 -75 -3 -27 -8 -63 -10 -80
-3 -16 -7 -46 -9 -65 -7 -52 -18 -133 -22 -152 -1 -9 -6 -48 -9 -85 -4 -37 -9
-71 -11 -74 -2 -3 -6 -30 -9 -60 -3 -30 -8 -70 -10 -89 -3 -19 -8 -53 -10 -74
-3 -22 -7 -51 -10 -65 -2 -14 -9 -62 -14 -106 -11 -83 -20 -152 -26 -195 -2
-14 -6 -47 -10 -75 -3 -27 -7 -63 -10 -80 -3 -16 -7 -43 -10 -60 -3 -16 -7
-52 -10 -80 -4 -27 -8 -61 -10 -75 -2 -14 -7 -47 -10 -75 -4 -27 -8 -61 -10
-75 -2 -14 -11 -79 -20 -145 -9 -66 -18 -131 -20 -145 -2 -14 -6 -47 -10 -75
-3 -27 -7 -59 -9 -70 -2 -12 -7 -48 -11 -80 -4 -33 -9 -71 -11 -85 -29 -161
-20 -446 17 -585 6 -22 13 -51 16 -65 2 -14 18 -65 35 -115 141 -413 439 -749
833 -940 241 -116 472 -166 750 -159 122 3 146 5 220 19 427 78 784 294 1026
620 33 44 63 85 67 90 28 35 103 178 145 275 45 103 100 319 112 438 4 31 8
68 10 82 3 14 7 48 10 75 3 28 7 61 10 75 4 24 11 74 19 137 2 15 11 82 20
148 9 66 19 136 21 155 3 19 14 103 25 185 11 83 23 168 26 190 3 22 7 51 9
65 2 14 7 49 10 79 4 30 8 61 10 70 1 9 6 41 9 72 4 31 8 66 10 76 5 25 17
117 22 162 1 19 6 53 9 75 11 69 14 89 20 141 4 28 9 64 12 80 2 17 6 44 8 60
9 82 18 151 20 155 2 3 6 34 10 70 4 36 9 73 11 84 2 10 6 44 10 75 3 31 8 65
10 76 2 11 6 45 9 75 4 30 8 62 10 70 2 8 7 40 10 70 3 30 10 80 15 110 5 30
12 80 15 110 4 30 8 66 10 80 6 37 14 100 19 145 5 42 14 102 22 145 2 14 6
48 9 75 17 145 20 151 30 63 4 -35 9 -72 11 -83 1 -11 6 -42 9 -70 3 -27 7
-61 9 -75 3 -14 7 -47 11 -75 8 -67 14 -107 25 -185 13 -88 18 -124 26 -195 3
-33 8 -69 10 -80 2 -11 7 -40 10 -65 3 -25 7 -56 9 -70 2 -14 7 -47 10 -75 3
-27 8 -61 10 -75 4 -23 9 -60 21 -155 2 -22 7 -51 9 -65 4 -24 13 -94 20 -155
8 -62 35 -261 40 -285 2 -14 7 -49 10 -79 4 -30 8 -61 10 -70 1 -9 6 -41 9
-72 4 -31 8 -65 10 -75 2 -11 7 -44 10 -75 4 -31 8 -65 10 -75 2 -11 7 -44 10
-75 4 -31 8 -65 10 -75 2 -11 7 -48 12 -84 4 -36 8 -67 9 -70 1 -3 5 -34 9
-70 5 -36 10 -72 11 -81 2 -9 6 -40 10 -70 3 -30 10 -81 15 -114 5 -33 12 -82
15 -110 3 -27 7 -61 10 -75 2 -14 7 -44 10 -67 7 -59 15 -123 20 -153 9 -61
15 -108 20 -150 5 -40 21 -152 30 -205 2 -11 6 -27 9 -35 3 -8 7 -26 10 -40 9
-55 69 -219 112 -304 40 -80 122 -213 149 -242 5 -6 32 -39 59 -72 114 -138
291 -276 471 -366 157 -78 280 -117 480 -151 60 -11 491 -14 565 -4 155 20
155 20 265 51 478 136 864 504 1021 974 41 123 54 180 72 327 9 72 8 291 -2
342 -3 17 -8 54 -12 83 -3 29 -7 62 -9 74 -3 11 -7 46 -10 77 -4 31 -8 63 -10
71 -2 8 -7 42 -11 75 -3 33 -7 67 -9 75 -5 26 -14 93 -20 140 -3 25 -7 54 -9
65 -2 11 -7 49 -11 85 -4 36 -9 72 -10 81 -2 9 -6 40 -10 70 -3 30 -8 65 -10
79 -2 14 -7 45 -10 70 -3 25 -8 56 -10 70 -2 14 -7 49 -10 79 -4 30 -8 61 -10
70 -1 9 -6 43 -10 76 -4 32 -9 68 -11 80 -2 11 -6 43 -9 70 -3 28 -13 97 -21
155 -8 58 -17 123 -20 145 -4 38 -11 87 -19 145 -2 14 -6 44 -9 68 -3 23 -9
61 -12 85 -3 23 -7 53 -9 67 -2 14 -7 49 -10 79 -4 30 -8 63 -11 74 -2 11 -6
43 -9 71 -3 28 -8 63 -10 77 -3 14 -7 43 -10 65 -5 42 -15 113 -20 154 -2 14
-7 52 -11 85 -3 33 -8 69 -10 80 -2 11 -7 40 -10 65 -3 25 -7 56 -9 70 -2 14
-11 79 -20 145 -8 66 -17 134 -20 150 -2 17 -7 53 -10 80 -4 28 -9 61 -11 75
-2 14 -6 48 -9 75 -3 28 -8 57 -10 65 -2 8 -7 44 -10 80 -3 36 -8 72 -10 80
-2 8 -12 71 -21 140 -8 69 -17 134 -19 145 -1 11 -5 45 -9 75 -4 30 -11 82
-16 115 -5 33 -12 85 -15 115 -3 30 -8 62 -10 70 -2 8 -7 40 -10 70 -3 30 -12
100 -20 155 -8 55 -17 120 -19 145 -3 25 -7 54 -10 65 -2 11 -7 45 -10 76 -4
31 -8 65 -10 75 -2 11 -7 46 -10 79 -4 33 -9 67 -11 75 -2 8 -6 40 -10 70 -3
30 -7 66 -9 80 -3 14 -7 48 -11 75 -7 58 -24 179 -30 215 -2 14 -11 84 -20
155 -9 72 -18 137 -20 145 -2 8 -6 40 -10 71 -3 31 -8 67 -11 80 -9 43 -11
287 -2 351 15 113 18 132 40 218 18 72 197 539 259 677 10 23 19 44 19 47 0 5
119 303 140 351 13 30 42 100 215 530 86 215 163 404 170 420 17 39 132 325
157 390 10 28 23 59 28 70 10 21 109 266 141 350 11 28 24 59 29 70 5 11 53
128 106 260 53 132 133 332 179 445 46 113 139 345 208 515 69 171 145 360
170 420 25 61 77 191 116 290 40 99 76 189 81 200 11 24 160 391 197 485 14
36 31 79 38 95 73 167 154 398 170 484 3 14 7 37 10 51 11 51 19 168 19 260 0
490 -222 921 -639 1238 -39 30 -173 107 -238 137 -75 35 -231 89 -285 100
-264 52 -492 52 -707 -1 -340 -84 -623 -263 -834 -529 -107 -135 -176 -258
-250 -445 -19 -47 -42 -103 -51 -125 -18 -41 -30 -73 -29 -78 0 -1 -11 -27
-25 -58 -13 -31 -75 -181 -136 -335 -61 -153 -118 -292 -125 -309 -7 -16 -36
-88 -65 -160 -28 -71 -55 -139 -60 -150 -10 -21 -102 -249 -299 -740 -67 -165
-125 -308 -131 -317 -5 -10 -10 -22 -10 -28 0 -5 -11 -33 -24 -62 -13 -29 -42
-102 -66 -162 -23 -60 -46 -116 -51 -125 -5 -9 -21 -50 -37 -91 -26 -67 -159
-400 -183 -457 -5 -13 -13 -33 -18 -45 -5 -13 -18 -44 -30 -70 -12 -26 -21
-51 -21 -54 0 -3 -6 -20 -14 -37 -8 -18 -49 -117 -91 -222 -42 -104 -78 -192
-81 -195 -3 -3 -3 11 1 30 3 19 8 46 9 60 10 77 38 279 41 300 2 14 7 50 11
80 4 30 8 64 9 75 2 11 6 44 10 74 4 30 8 61 10 70 1 9 6 41 10 71 3 30 8 66
10 80 2 14 7 50 10 80 4 30 9 62 10 71 2 9 6 40 10 70 3 30 8 65 10 79 2 14
11 79 20 145 8 66 20 149 25 185 5 36 12 81 14 100 11 88 18 137 22 160 2 14
6 50 9 80 4 30 8 62 10 70 2 8 7 42 11 75 3 33 8 69 10 80 2 11 6 41 9 66 3
25 8 56 10 70 3 13 7 47 10 74 4 28 8 61 10 75 3 23 11 82 20 158 2 18 6 45 9
60 3 15 8 50 11 77 6 59 16 133 21 159 2 10 6 44 10 75 3 31 8 65 10 76 27
139 26 440 -1 579 -75 382 -267 710 -558 952 -101 85 -175 134 -307 205 -136
73 -376 145 -550 165 -45 5 -288 12 -293 8z"/>
<path d="M15157 18354 c-1 -1 -24 -5 -52 -8 -101 -14 -122 -18 -217 -41 -181
-45 -367 -134 -528 -253 -98 -72 -250 -227 -324 -331 -55 -77 -156 -264 -182
-336 -15 -40 -302 -752 -319 -790 -7 -16 -68 -167 -135 -335 -67 -168 -133
-329 -146 -358 -13 -29 -24 -55 -24 -58 0 -5 -114 -290 -284 -709 -59 -143
-68 -168 -71 -175 -1 -3 -6 -16 -12 -30 -6 -14 -25 -61 -43 -105 -18 -44 -37
-91 -43 -105 -5 -14 -11 -29 -13 -35 -1 -5 -19 -50 -40 -100 -62 -150 -285
-699 -288 -710 -2 -5 -8 -21 -13 -35 -6 -14 -21 -50 -33 -80 -12 -30 -27 -66
-33 -80 -5 -14 -11 -29 -13 -35 -3 -11 -201 -496 -227 -559 -10 -21 -17 -40
-17 -41 0 -4 -198 -495 -210 -520 -5 -11 -80 -195 -166 -410 -86 -214 -215
-534 -286 -710 -71 -176 -177 -439 -235 -585 -58 -146 -109 -274 -114 -285 -9
-21 -44 -160 -53 -210 -26 -143 -27 -380 -3 -545 26 -172 27 -182 32 -225 7
-54 35 -264 40 -295 2 -14 7 -47 10 -75 3 -27 7 -61 10 -75 6 -45 15 -104 21
-155 3 -27 7 -59 9 -70 1 -11 6 -42 9 -70 4 -27 11 -79 16 -115 18 -123 21
-145 26 -190 3 -25 7 -56 9 -70 3 -14 8 -49 11 -79 3 -30 7 -62 9 -71 2 -9 6
-41 10 -71 3 -30 8 -65 10 -79 2 -14 9 -63 15 -110 6 -47 13 -96 15 -110 2
-14 9 -62 15 -107 6 -46 13 -97 15 -115 3 -18 7 -53 10 -78 3 -25 8 -56 10
-70 3 -14 7 -47 11 -75 3 -27 7 -61 9 -75 2 -14 6 -45 10 -70 5 -44 13 -101
20 -150 4 -25 22 -162 31 -235 2 -22 7 -51 9 -65 2 -14 7 -45 10 -70 3 -25 7
-54 9 -65 2 -11 7 -45 10 -76 4 -31 8 -65 10 -75 2 -11 7 -46 11 -79 4 -32 8
-66 10 -75 1 -8 6 -42 9 -75 4 -33 9 -67 11 -75 2 -8 6 -40 10 -71 3 -31 7
-65 9 -75 2 -11 9 -62 16 -114 12 -100 17 -139 25 -180 2 -14 7 -47 10 -75 12
-98 25 -200 29 -223 2 -10 7 -43 11 -76 3 -32 8 -68 10 -80 2 -11 6 -43 10
-71 3 -27 11 -81 16 -120 6 -38 12 -88 15 -110 4 -34 11 -91 29 -215 12 -85
15 -109 19 -145 3 -22 12 -87 20 -145 8 -58 17 -127 21 -155 3 -27 8 -61 10
-75 2 -14 6 -47 10 -75 8 -65 14 -111 21 -159 4 -21 8 -53 10 -70 2 -17 6 -49
9 -71 3 -22 10 -74 15 -116 6 -41 12 -84 14 -95 2 -10 7 -48 11 -84 3 -36 8
-72 10 -80 3 -8 7 -35 9 -60 33 -310 135 -578 308 -807 70 -94 228 -246 326
-316 127 -91 334 -193 452 -222 8 -2 40 -10 70 -19 105 -28 226 -39 448 -41
308 -3 469 21 674 100 351 136 628 387 802 728 81 157 133 315 151 463 4 27 8
60 11 74 6 32 5 241 -1 300 -4 43 -31 245 -39 299 -3 14 -10 69 -16 121 -7 52
-14 103 -16 114 -2 10 -6 44 -10 75 -3 31 -8 64 -10 75 -2 10 -6 44 -9 75 -4
31 -8 63 -10 71 -2 8 -7 40 -10 70 -3 30 -8 66 -10 80 -2 14 -7 43 -9 65 -3
22 -12 90 -21 150 -8 61 -17 128 -20 150 -9 77 -15 120 -19 142 -3 12 -7 48
-11 80 -3 32 -8 65 -10 73 -2 8 -6 40 -10 71 -3 31 -7 65 -9 75 -2 11 -7 46
-10 79 -4 33 -9 67 -11 75 -2 8 -6 40 -10 70 -3 30 -7 66 -10 80 -3 14 -7 48
-11 75 -3 28 -10 82 -15 120 -6 39 -12 84 -14 101 -4 38 -24 188 -30 224 -2
14 -6 45 -10 70 -5 41 -11 84 -20 150 -2 14 -7 49 -10 79 -4 30 -8 61 -10 70
-1 9 -6 41 -10 71 -9 76 -12 98 -20 150 -4 25 -9 58 -10 75 -2 29 -22 175 -30
225 -3 14 -7 48 -10 75 -3 28 -8 61 -10 75 -2 14 -9 63 -15 110 -6 47 -13 100
-16 118 -2 17 -6 47 -8 65 -3 17 -10 70 -16 117 -7 47 -14 99 -15 115 -2 17
-13 93 -24 170 -11 77 -22 164 -26 194 -4 30 -8 62 -10 72 -2 10 -6 42 -9 71
-4 29 -8 64 -10 78 -3 14 -7 48 -11 75 -3 28 -8 64 -10 80 -3 17 -7 46 -9 65
-13 103 -17 137 -21 155 -2 11 -7 43 -10 70 -3 28 -10 79 -15 115 -5 36 -12
85 -14 110 -6 48 -25 186 -30 217 -2 10 -7 43 -11 73 -3 30 -8 66 -10 80 -2
14 -7 50 -10 80 -4 30 -9 62 -10 70 -14 76 -20 171 -19 315 1 176 18 290 63
431 19 58 126 331 161 409 10 22 21 51 25 65 4 14 13 39 20 55 21 46 53 125
190 465 333 825 427 1057 440 1087 8 17 15 35 15 40 0 6 6 23 14 39 16 33 122
293 268 659 55 138 106 264 113 280 7 17 46 111 85 210 40 99 78 194 85 210 7
17 88 217 180 445 92 228 173 429 180 445 7 17 45 109 83 206 39 96 76 188 83
205 7 16 13 34 15 39 4 13 251 623 264 650 31 68 131 331 148 390 22 72 47
197 57 275 6 53 7 274 1 310 -2 14 -7 48 -11 75 -3 28 -15 86 -26 130 -154
617 -669 1075 -1292 1150 -51 7 -295 14 -300 9z"/>
</g>
</svg>
